<?xml version="1.0" encoding="utf-8"?>
<!-- Generator: Adobe Illustrator 24.1.2, SVG Export Plug-In . SVG Version: 6.00 Build 0)  -->
<svg version="1.1" xmlns="http://www.w3.org/2000/svg" xmlns:xlink="http://www.w3.org/1999/xlink" x="0px" y="0px"
	 viewBox="0 0 25 25" style="enable-background:new 0 0 25 25;" xml:space="preserve">
<path class="rect" d="M4,0.5h17c1.9,0,3.5,1.6,3.5,3.5v17c0,1.9-1.6,3.5-3.5,3.5H4c-1.9,0-3.5-1.6-3.5-3.5V4
	C0.5,2.1,2.1,0.5,4,0.5z" 
    stroke="#000" 
    fill="none"/>
<path class="logo" d="M18.3,14.2c1.2,1.2,1.5,1.7,1.5,1.8c0.5,0.9-0.6,0.9-0.6,0.9l-2,0c0,0-0.4,0.1-1-0.3c-0.8-0.5-1.8-1.9-2.3-1.8
	c-0.6,0.2-0.4,1.7-0.4,1.7s0,0.2-0.1,0.3C13.3,17,13,17,13,17h-0.6c0,0-2.1,0-3.9-1.9C6.6,13,5,9.1,5,9.1S4.9,8.9,5,8.7
	c0.1-0.1,0.4-0.1,0.4-0.1h2.2c0,0,0.2,0,0.3,0.1C8.1,8.8,8.2,9,8.2,9s0.3,0.7,0.7,1.6c0.9,1.6,1.3,2,1.6,1.8
	c0.4-0.3,0.3-2.3,0.3-2.3s0-0.7-0.2-1.1c-0.2-0.3-0.5-0.3-0.7-0.4c-0.1,0,0.1-0.3,0.3-0.4C10.7,8,11.4,8,12.2,8C12.8,8,13,8,13,8
	c0.7,0.2,0.5,0.9,0.5,2.6c0,0.6-0.1,1.3,0.3,1.6c0.2,0.1,0.8,0.1,1.8-1.7c0.5-0.9,0.9-1.6,0.9-1.6s0.1-0.2,0.2-0.3
	c0.1-0.1,0.3-0.1,0.3-0.1l2.3,0c0,0,0.7-0.1,0.8,0.2c0.1,0.3-0.3,0.9-1.2,2.2C17.3,13.2,17.1,13,18.3,14.2z"
    stroke="#000000"/>
</svg>
