<?xml version="1.0" encoding="utf-8"?>
<!-- Generator: Adobe Illustrator 24.1.2, SVG Export Plug-In . SVG Version: 6.00 Build 0)  -->
<svg version="1.1" id="Слой_1" xmlns="http://www.w3.org/2000/svg" xmlns:xlink="http://www.w3.org/1999/xlink" x="0px" y="0px"
	 viewBox="0 0 27 27" style="enable-background:new 0 0 27 27;" xml:space="preserve">
<path class="rect" d="M26.5,13.5c0,7.2-5.8,12.9-12.9,13h-0.1c-2,0-3.8-0.5-5.4-1.2l-5.6,1.1l-0.9,0.2l0.3-0.8l1.5-4.1
	c-1.8-2.2-2.9-5-2.9-8.2c0-7.2,5.8-13,13-13S26.5,6.3,26.5,13.5z"/>
<path class="logo" d="M11.8,7.5c-0.1-0.6-0.3-0.6-0.6-0.7c-0.2,0-0.4-0.1-0.6-0.1c-0.2,0-0.5,0-0.9,0.2C9.5,7.2,8.6,7.8,8.3,9.4s0.5,3.3,0.6,3.5
	c0.1,0.2,1.4,3.9,4.1,5.7c2.3,1.5,2.8,1.4,3.4,1.5c0.6,0,1.9-0.4,2.3-1.1s0.5-1.3,0.5-1.5c0-0.1-0.2-0.3-0.5-0.5s-1.6-1.3-1.8-1.4
	c-0.2-0.2-0.4-0.2-0.7,0c-0.3,0.3-1,0.9-1.2,1.1s-0.4,0.2-0.7,0s-1.1-0.7-2.1-2c-0.7-1-1.1-2.2-1.2-2.5c-0.1-0.3,0.1-0.5,0.3-0.6
	s0.4-0.3,0.5-0.5c0.2-0.2,0.3-0.3,0.4-0.5c0.1-0.2,0.1-0.4,0.1-0.6C12.3,9.9,12,8.2,11.8,7.5z"/>
</svg>
