<?xml version="1.0" encoding="utf-8"?>
<!-- Generator: Adobe Illustrator 24.1.2, SVG Export Plug-In . SVG Version: 6.00 Build 0)  -->
<svg version="1.1" id="Слой_1" xmlns="http://www.w3.org/2000/svg" xmlns:xlink="http://www.w3.org/1999/xlink" x="0px" y="0px"
	 viewBox="0 0 25 25" style="enable-background:new 0 0 25 25;" xml:space="preserve">
<path class="rect"  d="M4,0.5h17c1.9,0,3.5,1.6,3.5,3.5v17c0,1.9-1.6,3.5-3.5,3.5H4c-1.9,0-3.5-1.6-3.5-3.5V4
	C0.5,2.1,2.1,0.5,4,0.5z"/>
<path class="logo" d="M15.6,12.2h-2V20h-2.8v-7.8H9V9.8h1.8V8.4C10.8,6.2,11.6,5,14,5h2v2.4h-1.3c-0.9,0-1,0.4-1,1v1.4H16
	L15.6,12.2z"/>
</svg>
